
<svg xmlns="http://www.w3.org/2000/svg" viewBox="0 0 24 24" fill="none" stroke="currentColor" stroke-width="2" stroke-linecap="round" stroke-linejoin="round" class="lucide lucide-music">
  <circle cx="12" cy="12" r="10" fill="#1DB954"/>
  <path d="M9 17H5a2 2 0 0 1-2-2 2 2 0 0 1 2-2h2" stroke="white"/>
  <path d="M19 17h-4a2 2 0 0 1-2-2 2 2 0 0 1 2-2h2" stroke="white"/>
  <path d="M5 13v-2a6 6 0 0 1 6-6h2a6 6 0 0 1 6 6v2" stroke="white"/>
  <path d="M9 17v-2a2 2 0 0 1 2-2h2a2 2 0 0 1 2 2v2" stroke="white"/>
</svg>
